<?xml version="1.0" encoding="UTF-8"?>
<!DOCTYPE svg PUBLIC "-//W3C//DTD SVG 1.1//EN" "http://www.w3.org/Graphics/SVG/1.1/DTD/svg11.dtd">
<!-- Creator: CorelDRAW -->
<svg xmlns="http://www.w3.org/2000/svg" xml:space="preserve" width="3in" height="3in" version="1.1" style="shape-rendering:geometricPrecision; text-rendering:geometricPrecision; image-rendering:optimizeQuality; fill-rule:evenodd; clip-rule:evenodd"
viewBox="0 0 3000 3000"
 xmlns:xlink="http://www.w3.org/1999/xlink">
 <defs>
  <style type="text/css">
   <![CDATA[
    .fil0 {fill:#81A13B}
    .fil1 {fill:#9FC826}
    .fil2 {fill:white}
   ]]>
  </style>
 </defs>
 <g id="Layer_x0020_1">
  <metadata id="CorelCorpID_0Corel-Layer"/>
  <g id="_539253896">
   <circle class="fil0" cx="1500" cy="1500" r="1500"/>
   <circle class="fil1" cx="1500" cy="1500" r="1246"/>
  </g>
  <path class="fil2" d="M1411 2133c-48,0 -94,-5 -139,-15l-124 216c-7,12 -20,19 -33,19 -7,0 -14,-2 -20,-5 -18,-11 -24,-34 -14,-52l115 -199c-255,-89 -439,-333 -439,-618 0,-361 293,-654 654,-654 152,0 293,52 404,140l-139 138c-75,-53 -166,-84 -265,-84 -253,0 -459,206 -459,460 0,253 206,459 459,459 254,0 460,-206 460,-459 0,-99 -31,-190 -84,-265l138 -139c88,111 140,252 140,404 0,285 -183,528 -439,618l115 198c10,18 4,42 -14,52 -6,4 -13,5 -19,5 -13,0 -26,-7 -33,-19l-125 -215c-44,10 -91,15 -139,15zm609 -1084c-10,0 -20,-4 -27,-12l-43 -43 -449 449c-7,7 -17,11 -27,11 -10,0 -19,-4 -27,-11 -15,-15 -15,-39 0,-54l449 -449 -43 -43c-15,-15 -15,-39 0,-54l184 -185c11,-11 28,-14 42,-8 14,6 23,20 24,35l1 100 102 2c15,1 29,10 34,24 6,15 3,31 -8,42l-185 184c-7,8 -17,12 -27,12zm-609 537c59,0 106,-47 107,-106 4,-2 8,-5 11,-9l102 -102c17,33 26,70 26,110 0,135 -110,246 -246,246 -135,0 -246,-111 -246,-246 0,-136 111,-246 246,-246 40,0 77,9 110,26l-102 102c-4,3 -7,7 -9,11 -59,1 -106,48 -106,107 0,59 48,107 107,107zm69 -92c-7,32 -35,56 -69,56 -39,0 -71,-32 -71,-71 0,-34 24,-62 56,-69 -2,22 6,44 23,61 14,15 34,23 55,23 2,0 4,0 6,0zm-69 267c156,0 282,-126 282,-282 0,-50 -12,-96 -35,-137l102 -102c47,68 74,150 74,239 0,233 -189,423 -423,423 -233,0 -423,-190 -423,-423 0,-234 190,-423 423,-423 89,0 171,27 239,74l-102 102c-41,-23 -87,-35 -137,-35 -156,0 -282,126 -282,282 0,156 126,282 282,282z"/>
 </g>
</svg>
